<svg xmlns="http://www.w3.org/2000/svg" width="1376.547" height="651.767" viewBox="0 0 1376.547 651.767">
  <g id="Tracé_1" data-name="Tracé 1" fill="#e1e0df">
    <path d="M 1012.976623535156 651.2671508789062 C 998.6736450195312 651.267333984375 985.0975952148438 650.9016723632812 972.6256103515625 650.1799926757812 C 948.1563110351562 648.76416015625 923.41796875 645.7269897460938 899.0977783203125 641.1524658203125 C 879.6404418945312 637.49267578125 860.4054565429688 632.8463134765625 841.9274291992188 627.3426513671875 C 825.4866333007812 622.4456787109375 812.7012939453125 617.7621459960938 804.8707885742188 614.6956787109375 C 796.3862915039062 611.372802734375 791.72998046875 609.1799926757812 791.6839599609375 609.1583251953125 L 791.5469360351562 609.093505859375 L 791.3970947265625 609.1156616210938 L 623.27734375 633.96484375 L 287.0919494628906 633.96484375 L 264.1704406738281 633.96484375 L 155.4987945556641 633.96484375 C 149.0241241455078 633.96484375 141.6176147460938 631.6766357421875 133.4851226806641 627.163818359375 C 126.9489517211914 623.5368041992188 119.9382858276367 618.475830078125 112.6477890014648 612.1216430664062 C 100.2162857055664 601.2866821289062 91.17162322998047 590.3059692382812 91.081787109375 590.1962890625 L 90.92695617675781 590.0075073242188 L 90.68278503417969 590.0134887695312 C 90.66078948974609 590.0139770507812 88.44395446777344 590.0675048828125 84.77861785888672 590.0675048828125 C 74.05745697021484 590.0675048828125 53.3231201171875 589.6329956054688 34.91578674316406 586.7222900390625 C 24.53628730773926 585.0809936523438 16.36511993408203 582.869140625 10.62912082672119 580.1480102539062 C 7.374787330627441 578.6043090820312 4.87128734588623 576.8768310546875 3.187787294387817 575.0134887695312 C 1.404287219047546 573.0391235351562 0.4999539256095886 570.858642578125 0.4999539256095886 568.5323486328125 L 0.4999539256095886 455.4473571777344 C 3.846093654632568 455.1715087890625 24.76741600036621 453.3538513183594 45.44045257568359 449.4454956054688 C 58.63845443725586 446.9505004882812 69.16078948974609 444.1026611328125 76.71495056152344 440.9813232421875 C 81.23078918457031 439.1153259277344 84.73312377929688 437.1246643066406 87.12445068359375 435.0644836425781 C 89.82545471191406 432.7374877929688 91.19512176513672 430.2514953613281 91.19512176513672 427.6754760742188 C 91.19512176513672 409.4248046875 86.41428375244141 388.6851501464844 76.98561859130859 366.0326538085938 C 69.45111846923828 347.9309997558594 58.94712066650391 328.5703125 45.76545333862305 308.4883117675781 C 34.04145431518555 290.6269836425781 22.32412147521973 275.4881591796875 14.55912017822266 265.9333190917969 C 7.325795650482178 257.0328674316406 2.084104061126709 251.1917114257812 0.7183487415313721 249.6874847412109 C 2.924562931060791 247.8036651611328 13.96705341339111 238.2776184082031 24.88028717041016 227.1213226318359 C 32.01662063598633 219.8261566162109 37.70495223999023 213.2686462402344 41.78728866577148 207.6311492919922 C 44.22045516967773 204.2709808349609 46.10545349121094 201.2009887695312 47.38978576660156 198.5061492919922 C 48.82045364379883 195.5043182373047 49.5457878112793 192.8806457519531 49.5457878112793 190.7083129882812 C 49.5457878112793 162.3644866943359 47.02561950683594 138.1734924316406 42.0552864074707 118.8071517944336 C 38.05411911010742 103.217155456543 32.45862197875977 90.67981719970703 25.42411994934082 81.54365539550781 C 22.63378715515137 77.91948699951172 19.60445404052734 74.82382202148438 16.4202880859375 72.34248352050781 C 13.84578704833984 70.33615112304688 11.16028690338135 68.72148895263672 8.437953948974609 67.54281616210938 C 4.556807994842529 65.86246490478516 1.633494257926941 65.51888275146484 0.5041708946228027 65.44956207275391 C 0.5779508948326111 61.21326446533203 1.621682167053223 56.98091888427734 3.609453916549683 52.86215209960938 C 5.628120422363281 48.6793212890625 8.644120216369629 44.56098556518555 12.57378768920898 40.62165451049805 C 16.44445419311523 36.74165344238281 21.2382869720459 32.99715423583984 26.8226203918457 29.49248695373535 C 32.36278915405273 26.01531982421875 38.72745513916016 22.74481964111328 45.73978805541992 19.77148628234863 C 52.75778579711914 16.79582023620605 60.48128890991211 14.09398651123047 68.69561767578125 11.74081993103027 C 76.99228668212891 9.364319801330566 85.86261749267578 7.322819709777832 95.05995178222656 5.673486232757568 C 114.2016220092773 2.240652799606323 134.5361175537109 0.4999862611293793 155.4987945556641 0.4999862611293793 L 364.5528259277344 0.4999862611293793 C 366.0257873535156 1.041200518608093 386.2762145996094 8.442438125610352 411.7002868652344 15.75048637390137 C 427.1356201171875 20.18715286254883 441.4312744140625 23.72265243530273 454.1904602050781 26.25831985473633 C 470.154296875 29.43115234375 483.7491149902344 31.03981971740723 494.5974426269531 31.03981971740723 C 503.9884643554688 31.03981971740723 516.6116333007812 29.43098640441895 532.1166381835938 26.25782012939453 C 544.506103515625 23.72231864929199 558.7578125 20.18731880187988 574.4756469726562 15.75115299224854 C 600.4170532226562 8.429484367370605 621.913330078125 1.014579296112061 623.3987426757812 0.4999862611293793 L 1221.04833984375 0.4999862611293793 C 1225.012573242188 0.4999862611293793 1228.25146484375 1.092986226081848 1230.67431640625 2.262486219406128 C 1232.906616210938 3.340152978897095 1234.502563476562 4.939819812774658 1235.41796875 7.017486095428467 C 1237.457763671875 11.64748668670654 1236.27978515625 18.82098579406738 1231.9169921875 28.33865356445312 C 1228.390258789062 36.03198623657227 1222.792846679688 45.23415374755859 1215.2802734375 55.6893196105957 C 1202.473999023438 73.51148986816406 1188.3642578125 88.98198699951172 1188.223266601562 89.13615417480469 L 1187.715576171875 89.69132232666016 L 1188.423950195312 89.94448852539062 C 1188.650268554688 90.02532196044922 1211.310668945312 98.14698791503906 1233.675903320312 108.0519866943359 C 1246.799926757812 113.8643188476562 1257.253173828125 119.1429824829102 1264.745239257812 123.7413177490234 C 1269.174560546875 126.4599838256836 1272.597778320312 128.9633178710938 1274.919311523438 131.1816558837891 C 1277.3984375 133.5508270263672 1278.655639648438 135.6156463623047 1278.655639648438 137.3188171386719 L 1278.655639648438 137.3746490478516 L 1278.66796875 137.4289855957031 L 1300.73193359375 235.1196746826172 C 1299.481079101562 234.8057250976562 1296.929931640625 234.2778167724609 1293.918090820312 234.2778167724609 C 1291.419677734375 234.2778167724609 1289.132080078125 234.6451568603516 1287.118774414062 235.3693237304688 C 1284.578979492188 236.2829895019531 1282.474731445312 237.7676544189453 1280.864501953125 239.7821502685547 C 1276.4755859375 245.2728271484375 1275.736572265625 254.6378173828125 1278.66796875 267.6171569824219 C 1281.317504882812 279.3474731445312 1292.641479492188 300.6356506347656 1304.630249023438 323.1736450195312 C 1311.361572265625 335.8278198242188 1318.322143554688 348.9128112792969 1324.056640625 360.8901672363281 C 1330.528564453125 374.4073181152344 1334.488647460938 384.5823059082031 1336.163330078125 391.9966430664062 C 1337.121826171875 396.2409973144531 1335.878784179688 404.6183166503906 1332.46875 416.89599609375 C 1329.7265625 426.7686462402344 1325.587158203125 439.1446533203125 1320.164916992188 453.6798095703125 C 1310.929077148438 478.4384765625 1301.043579101562 501.1728210449219 1300.944946289062 501.399658203125 L 1300.80029296875 501.7318115234375 L 1301.07080078125 501.97265625 L 1376.04638671875 568.755615234375 C 1376.011596679688 573.0787353515625 1374.966186523438 577.3995971679688 1372.937744140625 581.6026611328125 C 1370.919067382812 585.7854614257812 1367.903076171875 589.90380859375 1363.973510742188 593.8431396484375 C 1360.102905273438 597.72314453125 1355.308959960938 601.4676513671875 1349.724731445312 604.9722900390625 C 1344.184448242188 608.449462890625 1337.81982421875 611.719970703125 1330.8076171875 614.6932983398438 C 1323.789672851562 617.6690063476562 1316.066162109375 620.370849609375 1307.8515625 622.7239990234375 C 1299.554931640625 625.1004638671875 1290.6845703125 627.1419677734375 1281.4873046875 628.7913208007812 C 1262.345581054688 632.2241821289062 1242.010986328125 633.96484375 1221.04833984375 633.96484375 L 1221.0087890625 633.96484375 L 1220.9697265625 633.9710083007812 C 1220.69775390625 634.0143432617188 1193.317993164062 638.344482421875 1154.169677734375 642.619140625 C 1131.178466796875 645.1295166015625 1108.687133789062 647.1298217773438 1087.320434570312 648.5645141601562 C 1060.615234375 650.3574829101562 1035.602294921875 651.266845703125 1012.976623535156 651.2671508789062 Z" stroke="none"/>
    <path d="M 155.4989013671875 0.99993896484375 C 134.5657958984375 0.99993896484375 114.2608642578125 2.73797607421875 95.148193359375 6.16558837890625 C 85.9674072265625 7.8121337890625 77.11376953125 9.849609375 68.83349609375 12.22161865234375 C 60.6383056640625 14.56903076171875 52.934326171875 17.26416015625 45.9349365234375 20.23175048828125 C 38.947021484375 23.1947021484375 32.606201171875 26.45306396484375 27.08837890625 29.91595458984375 C 21.5361328125 33.40069580078125 16.7718505859375 37.12139892578125 12.9278564453125 40.974853515625 C 9.037841796875 44.87451171875 6.05419921875 48.947021484375 4.059814453125 53.07940673828125 C 2.1771240234375 56.98040771484375 1.155029296875 60.9825439453125 1.016357421875 64.98956298828125 C 2.4161376953125 65.1248779296875 5.15673828125 65.577392578125 8.63671875 67.083984375 C 11.3975830078125 68.2794189453125 14.1197509765625 69.915771484375 16.7276611328125 71.94793701171875 C 19.945068359375 74.4552001953125 23.004150390625 77.5810546875 25.8203125 81.238525390625 C 32.8961181640625 90.4287109375 38.521240234375 103.02685546875 42.5394287109375 118.682861328125 C 44.9090576171875 127.9161376953125 46.741943359375 138.33740234375 47.987060546875 149.6575927734375 C 49.35302734375 162.0759582519531 50.045654296875 175.8874206542969 50.045654296875 190.7083129882812 C 50.045654296875 192.9557800292969 49.3038330078125 195.6517639160156 47.8409423828125 198.7214050292969 C 46.5435791015625 201.4434204101562 44.64306640625 204.5397644042969 42.192138671875 207.92431640625 C 38.095458984375 213.581787109375 32.39111328125 220.1583251953125 25.2376708984375 227.4710388183594 C 14.85107421875 238.0889587402344 4.346435546875 247.2330322265625 1.433837890625 249.7330017089844 C 3.2064208984375 251.6979675292969 8.217041015625 257.3367309570312 14.947021484375 265.6179504394531 C 22.7196044921875 275.1817626953125 34.447998046875 290.3350524902344 46.18359375 308.2139587402344 C 59.3822021484375 328.32177734375 69.90087890625 347.7101440429688 77.447265625 365.8405151367188 C 81.9342041015625 376.6199645996094 85.407470703125 387.0708618164062 87.7705078125 396.9026794433594 C 90.374755859375 407.7379760742188 91.6953125 418.0912475585938 91.6953125 427.6754150390625 C 91.6953125 430.4034118652344 90.2672119140625 433.0170288085938 87.450927734375 435.4432373046875 C 85.01904296875 437.538330078125 81.4713134765625 439.556884765625 76.906005859375 441.4434204101562 C 69.3203125 444.5777587890625 58.7650146484375 447.4354248046875 45.533447265625 449.9368591308594 C 25.62841796875 453.699951171875 5.4927978515625 455.5273132324219 1 455.9073791503906 L 1 568.5323486328125 C 1 570.761962890625 1.8370361328125 572.7723388671875 3.558837890625 574.6781616210938 C 5.197998046875 576.4924926757812 7.64892578125 578.1808471679688 10.8433837890625 579.6962890625 C 16.5361328125 582.3968505859375 24.66162109375 584.594482421875 34.9940185546875 586.2283325195312 C 53.367431640625 589.1336059570312 74.0721435546875 589.5673828125 84.7786865234375 589.5673828125 C 88.436767578125 589.5673828125 90.648681640625 589.51416015625 90.670654296875 589.5136108398438 L 91.158935546875 589.5015869140625 L 91.468505859375 589.8792114257812 C 91.55810546875 589.988525390625 100.5673828125 600.9274291992188 112.9654541015625 611.7352294921875 C 120.2310791015625 618.06884765625 127.21435546875 623.1113891601562 133.7213134765625 626.7228393554688 C 141.781494140625 631.1964721679688 149.1083984375 633.4646606445312 155.4989013671875 633.4646606445312 L 623.24072265625 633.4646606445312 L 791.623779296875 608.57666015625 L 791.8978271484375 608.706298828125 C 791.9434204101562 608.7279663085938 796.5728759765625 610.9085083007812 805.0338134765625 614.2222900390625 C 812.8538208007812 617.285400390625 825.6228637695312 621.963623046875 842.046142578125 626.8561401367188 C 860.5098266601562 632.356689453125 879.7301635742188 637.0001220703125 899.173583984375 640.657958984375 C 923.4781494140625 645.2301635742188 948.20068359375 648.2659301757812 972.654541015625 649.6806640625 C 985.114013671875 650.401611328125 998.6803588867188 650.7670288085938 1012.97705078125 650.7670288085938 C 1035.590576171875 650.7670288085938 1060.5908203125 649.8583374023438 1087.28369140625 648.0663452148438 C 1108.642333984375 646.63232421875 1131.125854492188 644.6328735351562 1154.109252929688 642.1232299804688 C 1193.246704101562 637.849609375 1220.619384765625 633.5203247070312 1220.891235351562 633.47705078125 L 1220.969482421875 633.4646606445312 L 1221.04833984375 633.4646606445312 C 1241.981567382812 633.4646606445312 1262.286499023438 631.7266845703125 1281.399047851562 628.299072265625 C 1290.579833984375 626.6527099609375 1299.433471679688 624.6150512695312 1307.713989257812 622.2432250976562 C 1315.908935546875 619.8955688476562 1323.613037109375 617.20068359375 1330.6123046875 614.2328491210938 C 1337.600219726562 611.2699584960938 1343.941040039062 608.0117797851562 1349.458862304688 604.5487060546875 C 1355.01123046875 601.0641479492188 1359.775390625 597.3433837890625 1363.619384765625 593.4899291992188 C 1367.509399414062 589.59033203125 1370.493286132812 585.5177612304688 1372.487426757812 581.3854370117188 C 1374.447998046875 577.3228759765625 1375.475341796875 573.150634765625 1375.543579101562 568.9774780273438 L 1300.197021484375 501.8641357421875 L 1300.486572265625 501.1997680664062 C 1300.585205078125 500.9732360839844 1310.465209960938 478.251220703125 1319.6962890625 453.5050659179688 C 1331.8583984375 420.9019775390625 1337.3837890625 399.6708679199219 1335.675415039062 392.1068725585938 C 1334.00927734375 384.7294006347656 1330.061279296875 374.5890502929688 1323.605590820312 361.10595703125 C 1317.875610351562 349.1383056640625 1310.917602539062 336.0579528808594 1304.188720703125 323.4083251953125 C 1292.18359375 300.8399658203125 1280.844360351562 279.5230407714844 1278.18017578125 267.7274169921875 C 1275.213623046875 254.5923156738281 1275.985229492188 245.0852355957031 1280.473754882812 239.469970703125 C 1282.142578125 237.3821411132812 1284.3212890625 235.8441467285156 1286.949462890625 234.8988647460938 C 1289.01708984375 234.1548767089844 1291.36181640625 233.7777709960938 1293.91796875 233.7777709960938 C 1296.442626953125 233.7777709960938 1298.653198242188 234.1433715820312 1300.068359375 234.4515991210938 L 1278.155639648438 137.4302978515625 L 1278.155639648438 137.31884765625 C 1278.155639648438 135.757568359375 1276.95068359375 133.8145141601562 1274.574340820312 131.5435791015625 C 1272.278564453125 129.3497924804688 1268.884155273438 126.8685302734375 1264.485229492188 124.1685180664062 C 1257.012939453125 119.5819702148438 1246.58056640625 114.3141479492188 1233.47802734375 108.5110473632812 C 1211.129272460938 98.61322021484375 1188.48193359375 90.49615478515625 1188.255859375 90.41522216796875 L 1186.839111328125 89.90887451171875 L 1187.8544921875 88.7987060546875 C 1187.995239257812 88.6446533203125 1202.0849609375 73.1961669921875 1214.874145507812 55.3975830078125 C 1231.628295898438 32.08123779296875 1238.573974609375 15.42120361328125 1234.960327148438 7.21905517578125 C 1234.082153320312 5.2255859375 1232.609130859375 3.7515869140625 1230.45703125 2.712890625 C 1228.102294921875 1.5762939453125 1224.936889648438 0.99993896484375 1221.04833984375 0.99993896484375 L 623.4827270507812 0.99993896484375 C 621.4312133789062 1.70941162109375 600.1776123046875 9.016357421875 574.6114501953125 16.2322998046875 C 558.8817749023438 20.6717529296875 544.6181640625 24.2095947265625 532.2167358398438 26.74761962890625 C 516.6788940429688 29.92742919921875 504.02197265625 31.539794921875 494.597412109375 31.539794921875 C 483.716552734375 31.539794921875 470.0888671875 29.92779541015625 454.0928955078125 26.7486572265625 C 441.3201904296875 24.2103271484375 427.0106811523438 20.67156982421875 411.5621948242188 16.2308349609375 C 386.5269165039062 9.03472900390625 366.5017700195312 1.74700927734375 364.4642333984375 0.99993896484375 L 155.4989013671875 0.99993896484375 M 155.4989013671875 -6.103515625e-05 L 364.6421508789062 -6.103515625e-05 C 364.6421508789062 -6.103515625e-05 447.1803588867188 30.539794921875 494.597412109375 30.539794921875 C 535.62109375 30.539794921875 623.3143310546875 -6.103515625e-05 623.3143310546875 -6.103515625e-05 L 1221.04833984375 -6.103515625e-05 C 1270.42919921875 -6.103515625e-05 1188.59228515625 89.47357177734375 1188.59228515625 89.47357177734375 C 1188.59228515625 89.47357177734375 1279.155639648438 121.843017578125 1279.155639648438 137.31884765625 L 1301.4033203125 235.8226928710938 C 1301.4033203125 235.8226623535156 1269.747924804688 225.8528747558594 1279.155639648438 267.5070495605469 C 1284.7568359375 292.3064880371094 1329.5498046875 360.4454040527344 1336.65087890625 391.8865051269531 C 1340.934204101562 410.8508605957031 1301.4033203125 501.5992431640625 1301.4033203125 501.5992431640625 L 1376.547241210938 568.5323486328125 C 1376.547241210938 604.94580078125 1306.92822265625 634.4646606445312 1221.04833984375 634.4646606445312 C 1221.04833984375 634.4646606445312 1112.224853515625 651.76708984375 1012.97705078125 651.76708984375 C 999.2244262695312 651.76708984375 985.6670532226562 651.4352416992188 972.5966796875 650.6790771484375 C 865.202392578125 644.4653930664062 791.4703369140625 609.6103515625 791.4703369140625 609.6103515625 L 623.3143310546875 634.4646606445312 C 623.3143310546875 634.4646606445312 358.0094604492188 634.4646606445312 287.092041015625 634.4646606445312 C 279.3665771484375 634.4646606445312 271.978759765625 634.4646606445312 264.1705322265625 634.4646606445312 C 150.7218017578125 634.4646606445312 121.292724609375 634.4646606445312 121.292724609375 634.4646606445312 L 155.4989013671875 634.4646606445312 C 126.7291259765625 634.4646606445312 90.6953125 590.5132446289062 90.6953125 590.5132446289062 C 90.6956787109375 590.5132446289062 0 592.747314453125 0 568.5323486328125 L 0 454.9861450195312 C 0 454.9861450195312 90.6953125 448.0046997070312 90.6953125 427.6754150390625 C 90.6953125 347.9528503417969 0 249.6419677734375 0 249.6419677734375 C 0 249.6419677734375 49.045654296875 208.2992248535156 49.045654296875 190.7083129882812 C 49.045654296875 66.78387451171875 1.3377685546875 65.93231201171875 0.0274658203125 65.93231201171875 C 0.0091552734375 65.93231201171875 0 65.9324951171875 0 65.9324951171875 C 0 29.51904296875 69.6192626953125 -6.103515625e-05 155.4989013671875 -6.103515625e-05 Z" stroke="none" fill="#707070"/>
  </g>
</svg>
